<?xml version="1.0" encoding="UTF-8"?>
<svg xmlns="http://www.w3.org/2000/svg" xmlns:xlink="http://www.w3.org/1999/xlink" width="15px" height="15px" viewBox="0 0 15 15" version="1.1">
<g id="surface1">
<path style=" stroke:none;fill-rule:nonzero;fill:rgb(16.862745%,16.862745%,16.470588%);fill-opacity:1;" d="M 7.367188 0 L 7.636719 0 C 8.941406 0.0273438 10.152344 0.367188 11.273438 1.015625 C 11.34375 1.058594 11.410156 1.097656 11.472656 1.136719 C 12.332031 1.679688 13.046875 2.355469 13.617188 3.164062 C 14.453125 4.34375 14.910156 5.660156 14.992188 7.117188 C 14.992188 7.125 14.996094 7.136719 15 7.144531 L 15 7.902344 C 14.992188 7.910156 14.988281 7.921875 14.988281 7.929688 C 14.925781 8.949219 14.675781 9.910156 14.226562 10.816406 C 13.515625 12.257812 12.351562 13.441406 10.921875 14.175781 C 10.132812 14.578125 9.296875 14.835938 8.414062 14.945312 C 8.167969 14.976562 7.90625 14.992188 7.632812 15 L 7.363281 15 C 7.132812 14.992188 6.914062 14.980469 6.707031 14.957031 C 5.824219 14.863281 4.984375 14.621094 4.1875 14.230469 C 2.71875 13.507812 1.53125 12.320312 0.792969 10.863281 C 0.289062 9.867188 0.0234375 8.761719 0 7.640625 L 0 7.203125 C 0.00390625 7.203125 0.00390625 7.199219 0.00390625 7.191406 C 0.0742188 5.710938 0.53125 4.375 1.371094 3.175781 C 1.980469 2.308594 2.753906 1.597656 3.6875 1.039062 C 3.75 1 3.816406 0.964844 3.886719 0.925781 C 4.96875 0.335938 6.128906 0.0273438 7.367188 0 Z M 13.5 4.46875 C 13.058594 3.589844 12.445312 2.839844 11.667969 2.214844 C 11.601562 2.160156 11.535156 2.113281 11.476562 2.066406 C 10.621094 1.445312 9.6875 1.042969 8.667969 0.863281 C 7.574219 0.667969 6.492188 0.742188 5.417969 1.082031 C 5.34375 1.105469 5.269531 1.132812 5.191406 1.160156 C 4.25 1.503906 3.425781 2.03125 2.722656 2.734375 C 1.960938 3.492188 1.398438 4.425781 1.074219 5.441406 C 0.898438 5.988281 0.796875 6.550781 0.765625 7.128906 C 0.765625 7.132812 0.769531 7.132812 0.769531 7.132812 L 4.691406 7.132812 C 4.695312 7.132812 4.695312 7.132812 4.695312 7.128906 C 4.84375 6.007812 5.636719 5.085938 6.726562 4.777344 C 7.847656 4.464844 9.0625 4.878906 9.75 5.820312 C 10.035156 6.210938 10.210938 6.648438 10.273438 7.128906 C 10.273438 7.132812 10.277344 7.132812 10.277344 7.132812 L 14.199219 7.132812 C 14.203125 7.132812 14.203125 7.132812 14.203125 7.132812 C 14.203125 7.132812 14.203125 7.128906 14.203125 7.128906 C 14.152344 6.1875 13.917969 5.300781 13.5 4.46875 Z M 6.6875 9.339844 C 6.6875 9.339844 6.691406 9.34375 6.699219 9.34375 C 6.707031 9.34375 6.710938 9.34375 6.710938 9.347656 C 6.714844 9.351562 6.71875 9.355469 6.722656 9.355469 C 6.734375 9.359375 6.75 9.363281 6.765625 9.371094 C 6.773438 9.375 6.78125 9.378906 6.789062 9.378906 C 6.808594 9.386719 6.828125 9.394531 6.84375 9.402344 C 6.980469 9.445312 7.117188 9.476562 7.253906 9.496094 C 7.265625 9.496094 7.277344 9.496094 7.285156 9.496094 C 7.308594 9.5 7.332031 9.5 7.355469 9.503906 C 7.414062 9.511719 7.511719 9.511719 7.640625 9.507812 C 7.648438 9.503906 7.65625 9.5 7.660156 9.5 C 7.71875 9.496094 7.777344 9.492188 7.835938 9.480469 C 8.265625 9.40625 8.632812 9.214844 8.9375 8.902344 C 9.046875 8.792969 9.136719 8.675781 9.210938 8.554688 C 9.242188 8.5 9.277344 8.441406 9.308594 8.386719 C 9.3125 8.375 9.316406 8.363281 9.320312 8.351562 C 9.324219 8.339844 9.328125 8.328125 9.335938 8.316406 C 9.34375 8.300781 9.351562 8.28125 9.359375 8.265625 C 9.359375 8.257812 9.363281 8.253906 9.363281 8.246094 C 9.367188 8.242188 9.371094 8.234375 9.371094 8.230469 C 9.417969 8.125 9.449219 8.011719 9.472656 7.886719 C 9.480469 7.835938 9.488281 7.785156 9.496094 7.734375 C 9.5 7.714844 9.5 7.691406 9.496094 7.667969 C 9.496094 7.664062 9.5 7.660156 9.5 7.65625 C 9.503906 7.652344 9.507812 7.648438 9.507812 7.644531 C 9.511719 7.546875 9.511719 7.453125 9.507812 7.355469 C 9.507812 7.351562 9.507812 7.347656 9.503906 7.347656 C 9.503906 7.347656 9.503906 7.34375 9.503906 7.34375 C 9.5 7.34375 9.5 7.34375 9.5 7.339844 L 9.496094 7.242188 C 9.496094 7.234375 9.496094 7.234375 9.492188 7.230469 C 9.488281 7.226562 9.484375 7.21875 9.484375 7.214844 C 9.488281 7.195312 9.484375 7.179688 9.480469 7.164062 C 9.476562 7.152344 9.476562 7.140625 9.472656 7.128906 C 9.472656 7.113281 9.46875 7.09375 9.464844 7.070312 C 9.445312 6.992188 9.425781 6.914062 9.402344 6.847656 C 9.375 6.765625 9.347656 6.699219 9.324219 6.648438 C 9.257812 6.515625 9.179688 6.386719 9.085938 6.265625 C 9.046875 6.214844 9.003906 6.164062 8.953125 6.117188 C 8.945312 6.109375 8.941406 6.101562 8.933594 6.09375 C 8.925781 6.078125 8.914062 6.066406 8.898438 6.058594 C 8.886719 6.050781 8.878906 6.042969 8.871094 6.035156 C 8.84375 6.003906 8.8125 5.976562 8.78125 5.949219 C 8.652344 5.847656 8.515625 5.757812 8.367188 5.683594 C 8.351562 5.675781 8.335938 5.671875 8.320312 5.664062 C 8.300781 5.65625 8.285156 5.648438 8.269531 5.640625 C 8.261719 5.636719 8.25 5.632812 8.242188 5.632812 C 8.230469 5.628906 8.222656 5.625 8.210938 5.621094 C 8.148438 5.59375 8.082031 5.574219 8.003906 5.554688 C 7.867188 5.519531 7.726562 5.5 7.582031 5.492188 C 7.34375 5.480469 7.097656 5.515625 6.847656 5.597656 C 6.832031 5.601562 6.8125 5.609375 6.792969 5.617188 C 6.753906 5.632812 6.714844 5.648438 6.675781 5.664062 C 6.644531 5.679688 6.613281 5.691406 6.582031 5.710938 C 6.574219 5.714844 6.5625 5.714844 6.554688 5.726562 C 6.554688 5.730469 6.550781 5.730469 6.546875 5.734375 C 6.511719 5.746094 6.484375 5.765625 6.453125 5.78125 C 6.378906 5.828125 6.308594 5.878906 6.238281 5.933594 C 6.1875 5.972656 6.136719 6.023438 6.085938 6.070312 C 6.070312 6.082031 6.0625 6.097656 6.046875 6.113281 C 5.972656 6.1875 5.902344 6.273438 5.839844 6.367188 C 5.773438 6.464844 5.714844 6.5625 5.671875 6.65625 C 5.664062 6.675781 5.660156 6.691406 5.652344 6.707031 C 5.585938 6.867188 5.539062 7.023438 5.515625 7.1875 C 5.515625 7.203125 5.511719 7.222656 5.507812 7.238281 C 5.5 7.269531 5.5 7.296875 5.503906 7.324219 C 5.503906 7.328125 5.5 7.332031 5.5 7.332031 C 5.492188 7.335938 5.492188 7.339844 5.492188 7.347656 C 5.492188 7.449219 5.492188 7.546875 5.492188 7.644531 C 5.492188 7.644531 5.492188 7.648438 5.492188 7.652344 C 5.496094 7.652344 5.496094 7.652344 5.496094 7.652344 C 5.5 7.65625 5.503906 7.660156 5.503906 7.664062 C 5.5 7.691406 5.503906 7.730469 5.511719 7.789062 C 5.535156 7.933594 5.566406 8.0625 5.605469 8.164062 C 5.628906 8.226562 5.652344 8.285156 5.675781 8.347656 C 5.679688 8.363281 5.699219 8.398438 5.726562 8.453125 C 5.734375 8.46875 5.746094 8.480469 5.753906 8.496094 C 5.765625 8.519531 5.78125 8.539062 5.792969 8.5625 C 5.800781 8.574219 5.808594 8.585938 5.816406 8.597656 C 5.835938 8.628906 5.859375 8.660156 5.878906 8.691406 C 5.890625 8.703125 5.902344 8.714844 5.910156 8.726562 C 5.921875 8.746094 5.9375 8.761719 5.953125 8.777344 C 5.957031 8.78125 5.960938 8.785156 5.960938 8.789062 C 5.960938 8.792969 5.960938 8.796875 5.964844 8.796875 C 5.996094 8.832031 6.03125 8.867188 6.0625 8.898438 C 6.066406 8.902344 6.066406 8.90625 6.066406 8.910156 C 6.066406 8.917969 6.070312 8.921875 6.078125 8.921875 C 6.082031 8.921875 6.085938 8.925781 6.089844 8.925781 C 6.128906 8.964844 6.164062 9 6.199219 9.035156 C 6.203125 9.035156 6.203125 9.039062 6.207031 9.039062 C 6.210938 9.039062 6.214844 9.042969 6.21875 9.042969 C 6.296875 9.113281 6.402344 9.1875 6.535156 9.265625 C 6.578125 9.289062 6.617188 9.304688 6.652344 9.320312 C 6.664062 9.324219 6.667969 9.335938 6.683594 9.335938 C 6.6875 9.332031 6.6875 9.335938 6.6875 9.339844 Z M 12.871094 11.519531 C 13.65625 10.472656 14.113281 9.21875 14.199219 7.914062 C 14.199219 7.910156 14.199219 7.910156 14.195312 7.910156 L 10.269531 7.910156 C 10.265625 7.910156 10.261719 7.914062 10.261719 7.914062 C 10.15625 8.589844 9.8125 9.203125 9.292969 9.636719 C 8.894531 9.972656 8.4375 10.179688 7.921875 10.261719 C 7.570312 10.316406 7.226562 10.304688 6.886719 10.230469 C 6.226562 10.082031 5.6875 9.742188 5.261719 9.203125 C 5.21875 9.148438 5.171875 9.085938 5.125 9.011719 C 4.910156 8.675781 4.769531 8.3125 4.707031 7.917969 C 4.707031 7.914062 4.703125 7.910156 4.699219 7.910156 L 0.777344 7.910156 C 0.773438 7.910156 0.769531 7.914062 0.769531 7.917969 C 0.84375 9.105469 1.242188 10.257812 1.902344 11.242188 C 2.425781 12.019531 3.09375 12.667969 3.902344 13.179688 C 3.972656 13.226562 4.042969 13.269531 4.109375 13.304688 C 4.996094 13.816406 5.945312 14.109375 6.945312 14.191406 C 8.121094 14.285156 9.253906 14.078125 10.34375 13.574219 C 10.410156 13.542969 10.480469 13.511719 10.550781 13.472656 C 11.476562 12.996094 12.25 12.34375 12.871094 11.519531 Z M 12.871094 11.519531 "/>
<path style=" stroke:none;fill-rule:nonzero;fill:rgb(16.862745%,16.862745%,16.470588%);fill-opacity:1;" d="M 9.023438 7.484375 C 9.023438 8.335938 8.335938 9.023438 7.484375 9.023438 C 6.636719 9.023438 5.949219 8.335938 5.949219 7.484375 C 5.949219 6.636719 6.636719 5.949219 7.484375 5.949219 C 8.335938 5.949219 9.023438 6.636719 9.023438 7.484375 Z M 8.378906 7.921875 C 8.382812 7.921875 8.382812 7.917969 8.382812 7.914062 C 8.382812 7.910156 8.382812 7.90625 8.386719 7.902344 C 8.386719 7.902344 8.386719 7.902344 8.390625 7.898438 C 8.394531 7.898438 8.394531 7.894531 8.394531 7.894531 C 8.394531 7.886719 8.394531 7.878906 8.402344 7.875 C 8.40625 7.875 8.40625 7.871094 8.40625 7.863281 L 8.410156 7.851562 C 8.410156 7.847656 8.410156 7.847656 8.410156 7.84375 C 8.417969 7.839844 8.421875 7.832031 8.421875 7.820312 C 8.421875 7.820312 8.421875 7.816406 8.421875 7.8125 C 8.425781 7.800781 8.429688 7.789062 8.433594 7.777344 C 8.464844 7.664062 8.480469 7.554688 8.472656 7.445312 C 8.46875 7.398438 8.464844 7.351562 8.453125 7.304688 C 8.449219 7.28125 8.445312 7.257812 8.4375 7.234375 C 8.4375 7.230469 8.4375 7.230469 8.4375 7.226562 C 8.425781 7.21875 8.433594 7.203125 8.421875 7.191406 C 8.421875 7.1875 8.421875 7.183594 8.417969 7.179688 C 8.417969 7.175781 8.417969 7.171875 8.417969 7.167969 C 8.363281 7.011719 8.269531 6.875 8.136719 6.761719 C 8.078125 6.710938 8.011719 6.667969 7.941406 6.632812 C 7.738281 6.527344 7.515625 6.5 7.273438 6.550781 C 7.257812 6.554688 7.238281 6.558594 7.226562 6.566406 C 7.21875 6.566406 7.210938 6.570312 7.207031 6.570312 C 7.199219 6.570312 7.195312 6.574219 7.191406 6.578125 C 7.1875 6.578125 7.183594 6.582031 7.179688 6.582031 C 7.171875 6.578125 7.164062 6.582031 7.15625 6.585938 C 7.15625 6.589844 7.152344 6.589844 7.148438 6.59375 C 7.140625 6.59375 7.136719 6.59375 7.128906 6.597656 C 7.101562 6.609375 7.070312 6.625 7.035156 6.644531 C 7.019531 6.648438 7.007812 6.65625 6.996094 6.664062 C 6.984375 6.675781 6.96875 6.683594 6.953125 6.6875 C 6.949219 6.691406 6.949219 6.691406 6.945312 6.695312 C 6.933594 6.710938 6.914062 6.71875 6.898438 6.730469 C 6.648438 6.9375 6.523438 7.203125 6.527344 7.519531 C 6.527344 7.730469 6.597656 7.925781 6.734375 8.105469 C 6.75 8.125 6.765625 8.136719 6.777344 8.152344 C 6.804688 8.195312 6.84375 8.222656 6.882812 8.253906 C 6.898438 8.269531 6.917969 8.285156 6.9375 8.296875 C 7.03125 8.359375 7.128906 8.40625 7.230469 8.4375 C 7.460938 8.503906 7.6875 8.484375 7.90625 8.382812 C 8.050781 8.320312 8.171875 8.226562 8.269531 8.097656 C 8.273438 8.09375 8.277344 8.089844 8.277344 8.085938 C 8.28125 8.082031 8.28125 8.078125 8.285156 8.078125 C 8.300781 8.054688 8.316406 8.03125 8.335938 8.003906 C 8.351562 7.976562 8.363281 7.949219 8.375 7.925781 C 8.378906 7.925781 8.378906 7.925781 8.378906 7.921875 Z M 8.378906 7.921875 "/>
</g>
</svg>
